<svg xmlns="http://www.w3.org/2000/svg" viewBox="0 0 100 100"><g fill="#D97757" transform="translate(50,50)"><rect x="-3.5" y="-44" width="7" height="38" rx="3.5" transform="rotate(0)"/><rect x="-3.5" y="-44" width="7" height="38" rx="3.5" transform="rotate(30)"/><rect x="-3.5" y="-44" width="7" height="38" rx="3.5" transform="rotate(60)"/><rect x="-3.5" y="-44" width="7" height="38" rx="3.5" transform="rotate(90)"/><rect x="-3.5" y="-44" width="7" height="38" rx="3.5" transform="rotate(120)"/><rect x="-3.5" y="-44" width="7" height="38" rx="3.5" transform="rotate(150)"/><rect x="-3.5" y="-44" width="7" height="38" rx="3.5" transform="rotate(180)"/><rect x="-3.5" y="-44" width="7" height="38" rx="3.5" transform="rotate(210)"/><rect x="-3.5" y="-44" width="7" height="38" rx="3.5" transform="rotate(240)"/><rect x="-3.5" y="-44" width="7" height="38" rx="3.5" transform="rotate(270)"/><rect x="-3.5" y="-44" width="7" height="38" rx="3.5" transform="rotate(300)"/><rect x="-3.5" y="-44" width="7" height="38" rx="3.5" transform="rotate(330)"/></g></svg>